<svg id="MadeInFrance" width="78px" height="89px" viewBox="0 0 78 89" version="1.1" xmlns="http://www.w3.org/2000/svg" xmlns:xlink="http://www.w3.org/1999/xlink">
    <defs>
        <rect id="path-avpeb-nc4j-1" x="0" y="0" width="78" height="89"></rect>
    </defs>
    <g id="Page-1" stroke="none" stroke-width="1" fill="none" fill-rule="evenodd">
        <g id="1920-px-copy-8" transform="translate(0.000000, -49.000000)">
            <g id="Group-15" transform="translate(0.000000, 49.000000)">
                <path d="M-5.72946755,48.2926325 L-5.72946755,43.7526325 L-3.64946755,48.2926325 L-3.04946755,48.2926325 L-0.96946755,43.7526325 L-0.96946755,48.2926325 L0.23053245,48.2926325 L0.23053245,41.3026325 L-1.00946755,41.3026325 L-3.34946755,46.4226325 L-5.68946755,41.3026325 L-6.92946755,41.3026325 L-6.92946755,48.2926325 L-5.72946755,48.2926325 Z M4.27664345,48.4426325 C4.65664345,48.4426325 4.97831012,48.3892992 5.24164345,48.2826325 C5.50497678,48.1759658 5.73997678,48.0226325 5.94664345,47.8226325 L5.94664345,47.8226325 L5.94664345,48.2926325 L7.13664345,48.2926325 L7.13664345,45.3626325 C7.13664345,44.7292992 6.93664345,44.2342992 6.53664345,43.8776325 C6.13664345,43.5209658 5.51997678,43.3426325 4.68664345,43.3426325 C4.37331012,43.3426325 4.04831012,43.3726325 3.71164345,43.4326325 C3.37497678,43.4926325 3.10664345,43.5692992 2.90664345,43.6626325 L2.90664345,43.6626325 L2.90664345,44.6526325 C3.12664345,44.5526325 3.37997678,44.4742992 3.66664345,44.4176325 C3.95331012,44.3609658 4.24331012,44.3326325 4.53664345,44.3326325 C5.00331012,44.3326325 5.34164345,44.4092992 5.55164345,44.5626325 C5.76164345,44.7159658 5.86664345,44.9626325 5.86664345,45.3026325 L5.86664345,45.3026325 L5.86664345,45.4326325 C5.42664345,45.1859658 4.90331012,45.0626325 4.29664345,45.0626325 C3.66997678,45.0626325 3.18331012,45.2126325 2.83664345,45.5126325 C2.48997678,45.8126325 2.31664345,46.2292992 2.31664345,46.7626325 C2.31664345,47.2759658 2.49997678,47.6842992 2.86664345,47.9876325 C3.23331012,48.2909658 3.70331012,48.4426325 4.27664345,48.4426325 Z M4.58664345,47.5226325 C4.26664345,47.5226325 4.02164345,47.4592992 3.85164345,47.3326325 C3.68164345,47.2059658 3.59664345,47.0159658 3.59664345,46.7626325 C3.59664345,46.2426325 3.93331012,45.9826325 4.60664345,45.9826325 C5.07997678,45.9826325 5.49997678,46.1126325 5.86664345,46.3726325 L5.86664345,46.3726325 L5.86664345,46.9026325 C5.74664345,47.0959658 5.57331012,47.2476325 5.34664345,47.3576325 C5.11997678,47.4676325 4.86664345,47.5226325 4.58664345,47.5226325 Z M11.7027544,48.4426325 C12.1094211,48.4426325 12.4594211,48.3876325 12.7527544,48.2776325 C13.0460878,48.1676325 13.3294211,47.9859658 13.6027544,47.7326325 L13.6027544,47.7326325 L13.6027544,48.2926325 L14.8227544,48.2926325 L14.8227544,40.9026325 L13.5627544,40.9026325 L13.5627544,43.9626325 C13.1094211,43.5492992 12.4894211,43.3426325 11.7027544,43.3426325 C11.2160878,43.3426325 10.7810878,43.4509658 10.3977544,43.6676325 C10.0144211,43.8842992 9.71442112,44.1859658 9.49775445,44.5726325 C9.28108778,44.9592992 9.17275445,45.4026325 9.17275445,45.9026325 C9.17275445,46.4092992 9.28108778,46.8542992 9.49775445,47.2376325 C9.71442112,47.6209658 10.0144211,47.9176325 10.3977544,48.1276325 C10.7810878,48.3376325 11.2160878,48.4426325 11.7027544,48.4426325 Z M12.0127544,47.4526325 C11.5594211,47.4526325 11.1860878,47.3092992 10.8927544,47.0226325 C10.5994211,46.7359658 10.4527544,46.3626325 10.4527544,45.9026325 C10.4527544,45.4426325 10.5994211,45.0659658 10.8927544,44.7726325 C11.1860878,44.4792992 11.5594211,44.3326325 12.0127544,44.3326325 C12.3727544,44.3326325 12.6944211,44.4309658 12.9777544,44.6276325 C13.2610878,44.8242992 13.4560878,45.0859658 13.5627544,45.4126325 L13.5627544,45.4126325 L13.5627544,46.3826325 C13.4494211,46.7092992 13.2527544,46.9692992 12.9727544,47.1626325 C12.6927544,47.3559658 12.3727544,47.4526325 12.0127544,47.4526325 Z M19.8088654,48.4426325 C20.1621988,48.4426325 20.5171988,48.4126325 20.8738654,48.3526325 C21.2305321,48.2926325 21.5221988,48.2159658 21.7488654,48.1226325 L21.7488654,48.1226325 L21.7488654,47.1526325 C21.5088654,47.2459658 21.2288654,47.3192992 20.9088654,47.3726325 C20.5888654,47.4259658 20.2755321,47.4526325 19.9688654,47.4526325 C18.8155321,47.4526325 18.1955321,47.0959658 18.1088654,46.3826325 L18.1088654,46.3826325 L22.1988654,46.3826325 L22.1988654,45.8026325 C22.1988654,45.3292992 22.0988654,44.9076325 21.8988654,44.5376325 C21.6988654,44.1676325 21.4005321,43.8759658 21.0038654,43.6626325 C20.6071988,43.4492992 20.1288654,43.3426325 19.5688654,43.3426325 C18.7155321,43.3426325 18.0588654,43.5726325 17.5988654,44.0326325 C17.1388654,44.4926325 16.9088654,45.1159658 16.9088654,45.9026325 C16.9088654,46.7026325 17.1688654,47.3259658 17.6888654,47.7726325 C18.2088654,48.2192992 18.9155321,48.4426325 19.8088654,48.4426325 Z M21.0088654,45.5226325 L18.1088654,45.5226325 C18.1221988,45.1559658 18.2555321,44.8659658 18.5088654,44.6526325 C18.7621988,44.4392992 19.1088654,44.3326325 19.5488654,44.3326325 C19.9955321,44.3326325 20.3471988,44.4359658 20.6038654,44.6426325 C20.8605321,44.8492992 20.9955321,45.1426325 21.0088654,45.5226325 L21.0088654,45.5226325 Z M29.6810874,42.6526325 C29.8810874,42.6526325 30.0510874,42.5859658 30.1910874,42.4526325 C30.3310874,42.3192992 30.4010874,42.1526325 30.4010874,41.9526325 C30.4010874,41.7526325 30.3310874,41.5842992 30.1910874,41.4476325 C30.0510874,41.3109658 29.8810874,41.2426325 29.6810874,41.2426325 C29.4810874,41.2426325 29.3127541,41.3109658 29.1760874,41.4476325 C29.0394208,41.5842992 28.9710874,41.7526325 28.9710874,41.9526325 C28.9710874,42.1526325 29.0394208,42.3192992 29.1760874,42.4526325 C29.3127541,42.5859658 29.4810874,42.6526325 29.6810874,42.6526325 Z M30.3210874,48.2926325 L30.3210874,43.4926325 L29.0410874,43.4926325 L29.0410874,48.2926325 L30.3210874,48.2926325 Z M33.9471984,48.2926325 L33.9471984,45.1526325 C34.1205318,44.8792992 34.3338651,44.6742992 34.5871984,44.5376325 C34.8405318,44.4009658 35.1105318,44.3326325 35.3971984,44.3326325 C36.0505318,44.3326325 36.3771984,44.6826325 36.3771984,45.3826325 L36.3771984,45.3826325 L36.3771984,48.2926325 L37.6371984,48.2926325 L37.6371984,45.2626325 C37.6371984,44.6826325 37.4771984,44.2176325 37.1571984,43.8676325 C36.8371984,43.5176325 36.3538651,43.3426325 35.7071984,43.3426325 C35.3605318,43.3426325 35.0305318,43.4076325 34.7171984,43.5376325 C34.4038651,43.6676325 34.1338651,43.8692992 33.9071984,44.1426325 L33.9071984,44.1426325 L33.9071984,43.4926325 L32.6871984,43.4926325 L32.6871984,48.2926325 L33.9471984,48.2926325 Z M45.8294204,48.2926325 L45.8294204,45.2726325 L48.3994204,45.2726325 L48.3994204,44.3226325 L45.8294204,44.3226325 L45.8294204,42.3626325 L49.2894204,42.3626325 L49.2894204,41.3026325 L44.5594204,41.3026325 L44.5594204,48.2926325 L45.8294204,48.2926325 Z M51.9855314,48.2926325 L51.9855314,45.3826325 C52.1255314,45.0626325 52.3738648,44.8276325 52.7305314,44.6776325 C53.0871981,44.5276325 53.5088648,44.4526325 53.9955314,44.4526325 L53.9955314,44.4526325 L53.9955314,43.4926325 C53.5355314,43.4926325 53.1271981,43.5559658 52.7705314,43.6826325 C52.4138648,43.8092992 52.1388648,44.0026325 51.9455314,44.2626325 L51.9455314,44.2626325 L51.9455314,43.4926325 L50.7255314,43.4926325 L50.7255314,48.2926325 L51.9855314,48.2926325 Z M57.1916424,48.4426325 C57.5716424,48.4426325 57.8933091,48.3892992 58.1566424,48.2826325 C58.4199758,48.1759658 58.6549758,48.0226325 58.8616424,47.8226325 L58.8616424,47.8226325 L58.8616424,48.2926325 L60.0516424,48.2926325 L60.0516424,45.3626325 C60.0516424,44.7292992 59.8516424,44.2342992 59.4516424,43.8776325 C59.0516424,43.5209658 58.4349758,43.3426325 57.6016424,43.3426325 C57.2883091,43.3426325 56.9633091,43.3726325 56.6266424,43.4326325 C56.2899758,43.4926325 56.0216424,43.5692992 55.8216424,43.6626325 L55.8216424,43.6626325 L55.8216424,44.6526325 C56.0416424,44.5526325 56.2949758,44.4742992 56.5816424,44.4176325 C56.8683091,44.3609658 57.1583091,44.3326325 57.4516424,44.3326325 C57.9183091,44.3326325 58.2566424,44.4092992 58.4666424,44.5626325 C58.6766424,44.7159658 58.7816424,44.9626325 58.7816424,45.3026325 L58.7816424,45.3026325 L58.7816424,45.4326325 C58.3416424,45.1859658 57.8183091,45.0626325 57.2116424,45.0626325 C56.5849758,45.0626325 56.0983091,45.2126325 55.7516424,45.5126325 C55.4049758,45.8126325 55.2316424,46.2292992 55.2316424,46.7626325 C55.2316424,47.2759658 55.4149758,47.6842992 55.7816424,47.9876325 C56.1483091,48.2909658 56.6183091,48.4426325 57.1916424,48.4426325 Z M57.5016424,47.5226325 C57.1816424,47.5226325 56.9366424,47.4592992 56.7666424,47.3326325 C56.5966424,47.2059658 56.5116424,47.0159658 56.5116424,46.7626325 C56.5116424,46.2426325 56.8483091,45.9826325 57.5216424,45.9826325 C57.9949758,45.9826325 58.4149758,46.1126325 58.7816424,46.3726325 L58.7816424,46.3726325 L58.7816424,46.9026325 C58.6616424,47.0959658 58.4883091,47.2476325 58.2616424,47.3576325 C58.0349758,47.4676325 57.7816424,47.5226325 57.5016424,47.5226325 Z M63.5477534,48.2926325 L63.5477534,45.1526325 C63.7210868,44.8792992 63.9344201,44.6742992 64.1877534,44.5376325 C64.4410868,44.4009658 64.7110868,44.3326325 64.9977534,44.3326325 C65.6510868,44.3326325 65.9777534,44.6826325 65.9777534,45.3826325 L65.9777534,45.3826325 L65.9777534,48.2926325 L67.2377534,48.2926325 L67.2377534,45.2626325 C67.2377534,44.6826325 67.0777534,44.2176325 66.7577534,43.8676325 C66.4377534,43.5176325 65.9544201,43.3426325 65.3077534,43.3426325 C64.9610868,43.3426325 64.6310868,43.4076325 64.3177534,43.5376325 C64.0044201,43.6676325 63.7344201,43.8692992 63.5077534,44.1426325 L63.5077534,44.1426325 L63.5077534,43.4926325 L62.2877534,43.4926325 L62.2877534,48.2926325 L63.5477534,48.2926325 Z M72.0838644,48.4426325 C72.4838644,48.4426325 72.8355311,48.4042992 73.1388644,48.3276325 C73.4421978,48.2509658 73.7138644,48.1326325 73.9538644,47.9726325 L73.9538644,47.9726325 L73.9538644,46.9726325 C73.4671978,47.2926325 72.8871978,47.4526325 72.2138644,47.4526325 C71.7138644,47.4526325 71.3121978,47.3259658 71.0088644,47.0726325 C70.7055311,46.8192992 70.5538644,46.4292992 70.5538644,45.9026325 C70.5538644,45.3692992 70.7055311,44.9742992 71.0088644,44.7176325 C71.3121978,44.4609658 71.7205311,44.3326325 72.2338644,44.3326325 C72.9071978,44.3326325 73.4605311,44.4859658 73.8938644,44.7926325 L73.8938644,44.7926325 L73.8938644,43.7826325 C73.4471978,43.4892992 72.8505311,43.3426325 72.1038644,43.3426325 C71.5371978,43.3426325 71.0421978,43.4442992 70.6188644,43.6476325 C70.1955311,43.8509658 69.8655311,44.1442992 69.6288644,44.5276325 C69.3921978,44.9109658 69.2738644,45.3692992 69.2738644,45.9026325 C69.2738644,46.4359658 69.3905311,46.8926325 69.6238644,47.2726325 C69.8571978,47.6526325 70.1855311,47.9426325 70.6088644,48.1426325 C71.0321978,48.3426325 71.5238644,48.4426325 72.0838644,48.4426325 Z M78.7399754,48.4426325 C79.0933088,48.4426325 79.4483088,48.4126325 79.8049754,48.3526325 C80.1616421,48.2926325 80.4533088,48.2159658 80.6799754,48.1226325 L80.6799754,48.1226325 L80.6799754,47.1526325 C80.4399754,47.2459658 80.1599754,47.3192992 79.8399754,47.3726325 C79.5199754,47.4259658 79.2066421,47.4526325 78.8999754,47.4526325 C77.7466421,47.4526325 77.1266421,47.0959658 77.0399754,46.3826325 L77.0399754,46.3826325 L81.1299754,46.3826325 L81.1299754,45.8026325 C81.1299754,45.3292992 81.0299754,44.9076325 80.8299754,44.5376325 C80.6299754,44.1676325 80.3316421,43.8759658 79.9349754,43.6626325 C79.5383088,43.4492992 79.0599754,43.3426325 78.4999754,43.3426325 C77.6466421,43.3426325 76.9899754,43.5726325 76.5299754,44.0326325 C76.0699754,44.4926325 75.8399754,45.1159658 75.8399754,45.9026325 C75.8399754,46.7026325 76.0999754,47.3259658 76.6199754,47.7726325 C77.1399754,48.2192992 77.8466421,48.4426325 78.7399754,48.4426325 Z M79.9399754,45.5226325 L77.0399754,45.5226325 C77.0533088,45.1559658 77.1866421,44.8659658 77.4399754,44.6526325 C77.6933088,44.4392992 78.0399754,44.3326325 78.4799754,44.3326325 C78.9266421,44.3326325 79.2783088,44.4359658 79.5349754,44.6426325 C79.7916421,44.8492992 79.9266421,45.1426325 79.9399754,45.5226325 L79.9399754,45.5226325 Z" id="MadeinFrance" fill="#FFFFFF" fill-rule="nonzero" mask="url(#mask-avpeb-nc4j-2)" transform="translate(37.100254, 44.672632) rotate(-53.000000) translate(-37.100254, -44.672632) "></path>
                <g mask="url(#mask-avpeb-nc4j-2)">
                    <g transform="translate(21.500000, 27.000000) rotate(-53.000000) translate(-21.500000, -27.000000) translate(-56.000000, 15.000000)">
                        <rect id="Rectangle" fill="#3B4D9E" x="0" y="0" width="155" height="9"></rect>
                        <rect id="Rectangle" fill="#FFFFFF" x="0" y="9" width="155" height="9"></rect>
                        <rect id="Rectangle" fill="#CF3C45" x="0" y="18" width="155" height="9"></rect>
                    </g>
                </g>
            </g>
        </g>
    </g>
    </svg>